<?xml version="1.0" encoding="utf-8"?>
<!-- Generator: Adobe Illustrator 21.0.0, SVG Export Plug-In . SVG Version: 6.00 Build 0)  -->
<svg version="1.1" id="Calque_1" xmlns="http://www.w3.org/2000/svg" xmlns:xlink="http://www.w3.org/1999/xlink" x="0px" y="0px"
	 viewBox="0 0 221.5 221.5" style="enable-background:new 0 0 221.5 221.5;" xml:space="preserve">
<style type="text/css">
	.st0{fill:#FFFFFF;}
</style>
<path d="M221.5,111c0,61-49.9,110.5-111.3,110.5C49.3,221.5-0.1,171.5,0,110C0.1,49.4,50.1-0.1,111.3,0C172,0.1,221.5,50,221.5,111z
	 M111,9.5C55.1,9.5,9.6,54.6,9.5,110c-0.1,56.3,44.9,102,100.5,102c56.6,0.1,102-44.9,102-101C212,54.9,166.9,9.5,111,9.5z"/>
<path class="st0" d="M111,9.5c55.9,0,101,45.4,101,101.5c0,56.1-45.4,101-102,101C54.4,211.9,9.5,166.3,9.5,110
	C9.6,54.6,55.1,9.5,111,9.5z M51.3,171.7c9.2-27.3,27.1-44.4,55.9-45.8c32.3-1.6,52.6,15.8,63.2,45.8c2.9-0.8,5.5-1.6,8.1-2.3
	c-4.6-29.6-37.6-54.6-69.9-53.3c-31.5,1.3-63.6,27.4-65.3,53.4C45.8,170.1,48.3,170.8,51.3,171.7z M88.3,68.2c-16.6,0-32.5,0-48.7,0
	c0,3.8,0,7.4,0,11c16.5,0,32.5,0,48.7,0C88.3,75.4,88.3,71.9,88.3,68.2z M133.2,79.3c16.5,0,32.4,0,48.6,0c0-3.8,0-7.5,0-11.1
	c-16.5,0-32.4,0-48.6,0C133.2,72,133.2,75.4,133.2,79.3z"/>
<path d="M51.3,171.7c-3-0.8-5.5-1.5-8-2.2c1.7-26,33.8-52.1,65.3-53.4c32.2-1.3,65.3,23.7,69.9,53.3c-2.6,0.7-5.3,1.5-8.1,2.3
	c-10.6-29.9-30.8-47.4-63.2-45.8C78.4,127.3,60.5,144.4,51.3,171.7z"/>
<path d="M88.3,68.2c0,3.8,0,7.2,0,11c-16.2,0-32.2,0-48.7,0c0-3.6,0-7.1,0-11C55.8,68.2,71.8,68.2,88.3,68.2z"/>
<path d="M133.2,79.3c0-3.9,0-7.4,0-11.1c16.2,0,32.1,0,48.6,0c0,3.6,0,7.3,0,11.1C165.6,79.3,149.6,79.3,133.2,79.3z"/>
</svg>
