<?xml version="1.0" encoding="utf-8"?>
<!-- Generator: Adobe Illustrator 21.0.0, SVG Export Plug-In . SVG Version: 6.00 Build 0)  -->
<svg version="1.1" id="Calque_1" xmlns="http://www.w3.org/2000/svg" xmlns:xlink="http://www.w3.org/1999/xlink" x="0px" y="0px"
	 viewBox="0 0 133.5 133.5" style="enable-background:new 0 0 133.5 133.5;" xml:space="preserve">
<style type="text/css">
	.st0{fill:#535059;}
	.st1{fill:none;stroke:#535059;stroke-width:2;stroke-miterlimit:10;}
</style>
<path class="st0" d="M86.8,34c0,0.8-0.1,1.7-0.3,2.6c-0.2,0.9-0.4,1.9-0.6,2.8c-0.5,1.9-1,3.6-1.3,4.7c0,0,0,0,0,0c0,0,0,0,0,0.1
	c0,0,0,0.1,0,0.1c0,0,0,0.1-0.1,0.1c0,0-0.1,0.1-0.1,0.1c0,0-0.1,0.1-0.1,0.1c0,0-0.1,0.1-0.1,0.1c0,0-0.1,0.1-0.1,0.1
	c0,0-0.1,0.1-0.1,0.1c0,0-0.1,0-0.1,0.1c0,0-0.1,0-0.1,0.1c0,0-0.1,0-0.1,0c0,0-0.1,0-0.1,0c0,0-0.1,0-0.2,0H83c0,0-0.1,0-0.2,0
	c-0.1,0-0.1,0-0.2,0c0,0-0.1,0-0.1,0c0,0,0,0-0.1,0c0,0,0,0,0,0c-2.3-0.9-4.2-1.3-5.5-1.3c-0.8,0-1.4,0.1-1.8,0.3
	c-0.5,0.2-0.8,0.5-1.2,0.9c-0.2,0.3-0.4,0.6-0.6,1c-0.3,0.5-0.5,1.2-0.6,2c-0.2,0.8-0.3,1.7-0.3,2.8c2.1,0,4.8,0,6.6,0
	c0.6,0,1.1-0.2,1.4-0.2c0.3,0,0.5,0,0.5,0c0.4,0,0.8,0.3,1.1,0.6c0.3,0.3,0.5,0.8,0.5,1.3l0,9.8c0,0.4-0.2,0.8-0.5,1.1
	c-0.3,0.3-0.7,0.5-1.1,0.5c0,0-0.1,0-0.4,0s-0.6,0-1,0c-0.8,0-2,0-3.1,0c-1,0-2,0-2.9,0c0,4,0.1,12.6,0.2,20.6
	c0.1,9.4,0.2,18.1,0.2,18.1c0,0.4-0.2,0.8-0.5,1.1c-0.3,0.3-0.7,0.5-1.1,0.5l-14.1,0.1c-0.4,0-0.8-0.2-1.1-0.5
	c-0.3-0.3-0.5-0.7-0.5-1.1c0,0,0-0.3,0-0.9c0-0.6,0-1.5,0-2.6c0-2.2,0-5.3,0-8.9c0-8.4-0.1-19.3-0.4-26.6c-2.2,0-5.1,0-6.7,0
	c-0.7,0-1.1,0-1.1,0c-0.9,0-1.6-0.8-1.6-1.7l-0.1-10.6c0-0.4,0.2-0.8,0.5-1.1c0.3-0.3,0.7-0.5,1.1-0.5c0,0,0.1,0,0.3,0
	c0.2,0,0.4,0,0.7,0c0.6,0,1.3,0,2.2,0c1,0,2,0,3,0c0.1-2.1,0.2-4.3,0.6-6.4c0.5-2.6,1.4-5.2,3-7.5c1.1-1.5,2.5-2.8,4.3-3.9
	c3.6-2.1,7.5-2.8,11.1-2.8c4.6,0,9,1.2,12.3,2.4c0.5,0.2,0.9,0.7,1,1.2C86.8,33.2,86.8,33.6,86.8,34z"/>
<circle class="st1" cx="66.8" cy="66.8" r="65.8"/>
</svg>
