<?xml version="1.0" encoding="utf-8"?>
<!-- Generator: Adobe Illustrator 21.0.0, SVG Export Plug-In . SVG Version: 6.00 Build 0)  -->
<svg version="1.1" id="Calque_1" xmlns="http://www.w3.org/2000/svg" xmlns:xlink="http://www.w3.org/1999/xlink" x="0px" y="0px"
	 viewBox="0 0 133.5 133.5" style="enable-background:new 0 0 133.5 133.5;" xml:space="preserve">
<style type="text/css">
	.st0{fill:#535059;}
	.st1{fill:none;stroke:#535059;stroke-width:2;stroke-miterlimit:10;}
</style>
<g>
	<path class="st0" d="M98.5,45.5c0,0.3-0.1,0.7-0.2,1c-0.8,2.8-1.1,3.9-1.9,6.2c-0.2,0.5-0.4,1.1-0.6,1.8c0,0.4,0,0.8,0,1.2
		c0,9.5-3.7,19.2-10.1,26.5C80.7,88,71.4,95,56.6,95c-6.1,0-10.7-1.5-13.5-2.8c-1.5-0.7-6.2-2.8-6.2-5.7c0-1.7,1.4-3.1,3.1-3.1
		c3.1,0,6.1-0.6,8.9-1.8c-3.6-2.1-7.3-5.4-10-9.7c-3.7-5.9-6.8-15.9-0.4-29.4c0.4-0.9,1.3-1.6,2.3-1.7c0.1,0,0.3,0,0.4,0
		c0.9,0,1.8,0.4,2.3,1.1c5.2,6.4,12.6,10.6,20.7,11.9c0.2-8.5,7.2-15.3,15.8-15.3c3.9,0,7.7,1.5,10.6,4.1h0.2c0.7,0,1,0,1.6,0
		c0.4,0,1,0,2,0l1,0c0,0,0,0,0,0C97.2,42.5,98.5,43.9,98.5,45.5z"/>
</g>
<circle class="st1" cx="66.8" cy="66.8" r="65.8"/>
</svg>
